<svg xmlns="http://www.w3.org/2000/svg" viewBox="0 0 800 500" font-family="Segoe UI, Arial, sans-serif">
  <defs>
    <filter id="panelShadow" x="-1%" y="-1%" width="102%" height="102%">
      <feDropShadow dx="0" dy="1" stdDeviation="2" flood-opacity="0.10"/>
    </filter>
    <linearGradient id="topBar" x1="0" y1="0" x2="0" y2="1">
      <stop offset="0%" stop-color="#0078d4"/>
      <stop offset="100%" stop-color="#005a9e"/>
    </linearGradient>
  </defs>

  <!-- Background -->
  <rect width="800" height="500" fill="#f0f2f5" rx="8"/>

  <!-- Header Bar -->
  <rect width="800" height="44" fill="url(#topBar)" rx="8"/>
  <rect y="22" width="800" height="22" fill="url(#topBar)"/>
  <text x="16" y="28" fill="white" font-size="15" font-weight="600">Pipeline Flattener — Expanded View</text>

  <!-- View toggles -->
  <rect x="360" y="10" width="86" height="24" rx="4" fill="white" opacity="0.2"/>
  <text x="370" y="26" fill="white" font-size="9" font-weight="600">Tree + YAML</text>
  <rect x="450" y="10" width="70" height="24" rx="4" fill="transparent" stroke="white" stroke-opacity="0.4"/>
  <text x="460" y="26" fill="white" font-size="9" opacity="0.8">YAML Only</text>
  <rect x="524" y="10" width="66" height="24" rx="4" fill="transparent" stroke="white" stroke-opacity="0.4"/>
  <text x="534" y="26" fill="white" font-size="9" opacity="0.8">Tree Only</text>

  <!-- Control buttons (right side of header) -->
  <rect x="620" y="12" width="20" height="20" rx="3" fill="white" opacity="0.15"/>
  <text x="625" y="26" fill="white" font-size="11">⊘</text>
  <rect x="646" y="12" width="54" height="20" rx="3" fill="white" opacity="0.15"/>
  <text x="654" y="26" fill="white" font-size="9">📋 Copy</text>
  <rect x="706" y="12" width="42" height="20" rx="3" fill="white" opacity="0.15"/>
  <text x="714" y="26" fill="white" font-size="9">⬇ .yml</text>
  <rect x="754" y="12" width="36" height="20" rx="3" fill="white" opacity="0.15"/>
  <text x="760" y="26" fill="white" font-size="9">🔍</text>

  <!-- ===== LEFT PANE: Template Tree ===== -->
  <rect x="8" y="50" width="230" height="442" rx="6" fill="white" filter="url(#panelShadow)"/>
  <rect x="8" y="50" width="230" height="28" rx="6" fill="#f8f8f8"/>
  <rect x="8" y="70" width="230" height="8" fill="#f8f8f8"/>
  <text x="18" y="68" fill="#555" font-size="11" font-weight="600">Template Tree</text>

  <!-- Root node -->
  <rect x="20" y="90" width="200" height="28" rx="4" fill="#f5f5f5" stroke="#d0d0d0"/>
  <rect x="20" y="90" width="4" height="28" rx="2" fill="#888"/>
  <text x="32" y="108" fill="#333" font-size="10" font-weight="600">📄 azure-pipelines.yml</text>

  <!-- Connector lines -->
  <line x1="40" y1="118" x2="40" y2="136" stroke="#ddd" stroke-width="1"/>

  <!-- Template 1 -->
  <rect x="40" y="130" width="180" height="28" rx="4" fill="#0078d4" opacity="0.08" stroke="#0078d4" stroke-opacity="0.3"/>
  <rect x="40" y="130" width="4" height="28" rx="2" fill="#0078d4"/>
  <text x="52" y="148" fill="#0078d4" font-size="10" font-weight="600">📎 stages/build.yml</text>

  <line x1="60" y1="158" x2="60" y2="176" stroke="#ddd" stroke-width="1"/>

  <!-- Template 1a (nested) -->
  <rect x="60" y="170" width="160" height="28" rx="4" fill="#2da44e" opacity="0.08" stroke="#2da44e" stroke-opacity="0.3"/>
  <rect x="60" y="170" width="4" height="28" rx="2" fill="#2da44e"/>
  <text x="72" y="188" fill="#2da44e" font-size="10">📎 steps/npm-build.yml</text>

  <line x1="60" y1="198" x2="60" y2="216" stroke="#ddd" stroke-width="1"/>

  <!-- Template 1b (nested) -->
  <rect x="60" y="210" width="160" height="28" rx="4" fill="#8250df" opacity="0.08" stroke="#8250df" stroke-opacity="0.3"/>
  <rect x="60" y="210" width="4" height="28" rx="2" fill="#8250df"/>
  <text x="72" y="228" fill="#8250df" font-size="10">📎 steps/docker-push.yml</text>

  <line x1="40" y1="158" x2="40" y2="256" stroke="#ddd" stroke-width="1"/>

  <!-- Template 2 -->
  <rect x="40" y="250" width="180" height="28" rx="4" fill="#cf222e" opacity="0.08" stroke="#cf222e" stroke-opacity="0.3"/>
  <rect x="40" y="250" width="4" height="28" rx="2" fill="#cf222e"/>
  <text x="52" y="268" fill="#cf222e" font-size="10" font-weight="600">📎 stages/test.yml</text>

  <line x1="40" y1="278" x2="40" y2="296" stroke="#ddd" stroke-width="1"/>

  <!-- Template 3 -->
  <rect x="40" y="290" width="180" height="28" rx="4" fill="#d4a72c" opacity="0.08" stroke="#d4a72c" stroke-opacity="0.3"/>
  <rect x="40" y="290" width="4" height="28" rx="2" fill="#d4a72c"/>
  <text x="52" y="308" fill="#d4a72c" font-size="10" font-weight="600">📎 stages/deploy.yml</text>

  <!-- Color legend -->
  <text x="18" y="345" fill="#888" font-size="9" font-weight="600">COLOR LEGEND</text>
  <rect x="18" y="354" width="8" height="8" rx="1" fill="#888"/>
  <text x="30" y="362" fill="#666" font-size="8">Root pipeline</text>
  <rect x="18" y="368" width="8" height="8" rx="1" fill="#0078d4"/>
  <text x="30" y="376" fill="#666" font-size="8">stages/build.yml</text>
  <rect x="18" y="382" width="8" height="8" rx="1" fill="#2da44e"/>
  <text x="30" y="390" fill="#666" font-size="8">steps/npm-build.yml</text>
  <rect x="18" y="396" width="8" height="8" rx="1" fill="#8250df"/>
  <text x="30" y="404" fill="#666" font-size="8">steps/docker-push.yml</text>
  <rect x="18" y="410" width="8" height="8" rx="1" fill="#cf222e"/>
  <text x="30" y="418" fill="#666" font-size="8">stages/test.yml</text>
  <rect x="18" y="424" width="8" height="8" rx="1" fill="#d4a72c"/>
  <text x="30" y="432" fill="#666" font-size="8">stages/deploy.yml</text>

  <!-- Annotation toggles -->
  <rect x="18" y="448" width="10" height="10" rx="2" fill="#0078d4" stroke="#0078d4"/>
  <text x="18" y="455" fill="white" font-size="8" font-weight="700">✓</text>
  <text x="32" y="457" fill="#555" font-size="8">Source borders</text>
  <rect x="110" y="448" width="10" height="10" rx="2" fill="#0078d4" stroke="#0078d4"/>
  <text x="110" y="455" fill="white" font-size="8" font-weight="700">✓</text>
  <text x="124" y="457" fill="#555" font-size="8">Expressions</text>

  <!-- ===== DIVIDER ===== -->
  <rect x="241" y="50" width="6" height="442" fill="#e0e0e0" rx="3" cursor="col-resize"/>
  <line x1="244" y1="265" x2="244" y2="275" stroke="#aaa" stroke-width="1"/>
  <line x1="244" y1="278" x2="244" y2="288" stroke="#aaa" stroke-width="1"/>

  <!-- ===== RIGHT PANE: Flattened YAML ===== -->
  <rect x="250" y="50" width="542" height="442" rx="6" fill="#1e1e1e" filter="url(#panelShadow)"/>
  <rect x="250" y="50" width="542" height="28" rx="6" fill="#2d2d2d"/>
  <rect x="250" y="70" width="542" height="8" fill="#2d2d2d"/>
  <text x="264" y="68" fill="#ccc" font-size="11" font-weight="600">Flattened YAML</text>
  <text x="700" y="68" fill="#888" font-size="9">142 lines</text>

  <!-- Line numbers gutter -->
  <rect x="250" y="78" width="30" height="414" fill="#252525" rx="0"/>

  <!-- YAML Content with colored source borders -->

  <!-- Line 1 - root (gray border) -->
  <rect x="280" y="84" width="3" height="14" fill="#888"/>
  <text x="258" y="95" fill="#555" font-size="10" font-family="Consolas, monospace">1</text>
  <text x="288" y="95" fill="#569cd6" font-size="10" font-family="Consolas, monospace">trigger</text>
  <text x="325" y="95" fill="#d4d4d4" font-size="10" font-family="Consolas, monospace">:</text>

  <!-- Line 2 - root -->
  <rect x="280" y="100" width="3" height="14" fill="#888"/>
  <text x="258" y="111" fill="#555" font-size="10" font-family="Consolas, monospace">2</text>
  <text x="298" y="111" fill="#d4d4d4" font-size="10" font-family="Consolas, monospace">- </text>
  <text x="312" y="111" fill="#ce9178" font-size="10" font-family="Consolas, monospace">main</text>

  <!-- Line 3 - blank -->
  <text x="258" y="127" fill="#555" font-size="10" font-family="Consolas, monospace">3</text>

  <!-- Line 4 - root -->
  <rect x="280" y="132" width="3" height="14" fill="#888"/>
  <text x="258" y="143" fill="#555" font-size="10" font-family="Consolas, monospace">4</text>
  <text x="288" y="143" fill="#569cd6" font-size="10" font-family="Consolas, monospace">stages</text>
  <text x="322" y="143" fill="#d4d4d4" font-size="10" font-family="Consolas, monospace">:</text>

  <!-- Line 5 - from build.yml (blue border) -->
  <rect x="280" y="148" width="3" height="14" fill="#0078d4"/>
  <text x="258" y="159" fill="#555" font-size="10" font-family="Consolas, monospace">5</text>
  <text x="288" y="159" fill="#d4d4d4" font-size="10" font-family="Consolas, monospace">- </text>
  <text x="302" y="159" fill="#569cd6" font-size="10" font-family="Consolas, monospace">stage</text>
  <text x="330" y="159" fill="#d4d4d4" font-size="10" font-family="Consolas, monospace">: </text>
  <text x="342" y="159" fill="#ce9178" font-size="10" font-family="Consolas, monospace">Build</text>

  <!-- Line 6 - from build.yml (blue border) -->
  <rect x="280" y="164" width="3" height="14" fill="#0078d4"/>
  <text x="258" y="175" fill="#555" font-size="10" font-family="Consolas, monospace">6</text>
  <text x="298" y="175" fill="#569cd6" font-size="10" font-family="Consolas, monospace">displayName</text>
  <text x="378" y="175" fill="#d4d4d4" font-size="10" font-family="Consolas, monospace">: </text>
  <text x="390" y="175" fill="#ce9178" font-size="10" font-family="Consolas, monospace">'Build and Package'</text>

  <!-- Line 7 - from build.yml (blue border) -->
  <rect x="280" y="180" width="3" height="14" fill="#0078d4"/>
  <text x="258" y="191" fill="#555" font-size="10" font-family="Consolas, monospace">7</text>
  <text x="298" y="191" fill="#569cd6" font-size="10" font-family="Consolas, monospace">jobs</text>
  <text x="322" y="191" fill="#d4d4d4" font-size="10" font-family="Consolas, monospace">:</text>

  <!-- Line 8 - from build.yml -->
  <rect x="280" y="196" width="3" height="14" fill="#0078d4"/>
  <text x="258" y="207" fill="#555" font-size="10" font-family="Consolas, monospace">8</text>
  <text x="298" y="207" fill="#d4d4d4" font-size="10" font-family="Consolas, monospace">- </text>
  <text x="312" y="207" fill="#569cd6" font-size="10" font-family="Consolas, monospace">job</text>
  <text x="332" y="207" fill="#d4d4d4" font-size="10" font-family="Consolas, monospace">: </text>
  <text x="342" y="207" fill="#ce9178" font-size="10" font-family="Consolas, monospace">BuildWeb</text>

  <!-- Line 9 - from build.yml -->
  <rect x="280" y="212" width="3" height="14" fill="#0078d4"/>
  <text x="258" y="223" fill="#555" font-size="10" font-family="Consolas, monospace">9</text>
  <text x="310" y="223" fill="#569cd6" font-size="10" font-family="Consolas, monospace">pool</text>
  <text x="338" y="223" fill="#d4d4d4" font-size="10" font-family="Consolas, monospace">:</text>

  <!-- Line 10 - resolved expression -->
  <rect x="280" y="228" width="3" height="14" fill="#0078d4"/>
  <text x="254" y="239" fill="#555" font-size="10" font-family="Consolas, monospace">10</text>
  <text x="322" y="239" fill="#569cd6" font-size="10" font-family="Consolas, monospace">vmImage</text>
  <text x="374" y="239" fill="#d4d4d4" font-size="10" font-family="Consolas, monospace">: </text>
  <text x="386" y="239" fill="#ce9178" font-size="10" font-family="Consolas, monospace">ubuntu-latest</text>
  <text x="500" y="239" fill="#6a9955" font-size="9" font-family="Consolas, monospace" opacity="0.7"># ← ${{ parameters.vmImage }}</text>

  <!-- Line 11 - from build.yml -->
  <rect x="280" y="244" width="3" height="14" fill="#0078d4"/>
  <text x="254" y="255" fill="#555" font-size="10" font-family="Consolas, monospace">11</text>
  <text x="310" y="255" fill="#569cd6" font-size="10" font-family="Consolas, monospace">steps</text>
  <text x="342" y="255" fill="#d4d4d4" font-size="10" font-family="Consolas, monospace">:</text>

  <!-- Line 12 - from npm-build.yml (GREEN border) -->
  <rect x="280" y="260" width="3" height="14" fill="#2da44e"/>
  <text x="254" y="271" fill="#555" font-size="10" font-family="Consolas, monospace">12</text>
  <text x="310" y="271" fill="#d4d4d4" font-size="10" font-family="Consolas, monospace">- </text>
  <text x="324" y="271" fill="#569cd6" font-size="10" font-family="Consolas, monospace">task</text>
  <text x="348" y="271" fill="#d4d4d4" font-size="10" font-family="Consolas, monospace">: </text>
  <text x="360" y="271" fill="#ce9178" font-size="10" font-family="Consolas, monospace">Npm@1</text>

  <!-- Line 13 - from npm-build.yml (GREEN border) -->
  <rect x="280" y="276" width="3" height="14" fill="#2da44e"/>
  <text x="254" y="287" fill="#555" font-size="10" font-family="Consolas, monospace">13</text>
  <text x="322" y="287" fill="#569cd6" font-size="10" font-family="Consolas, monospace">displayName</text>
  <text x="400" y="287" fill="#d4d4d4" font-size="10" font-family="Consolas, monospace">: </text>
  <text x="412" y="287" fill="#ce9178" font-size="10" font-family="Consolas, monospace">'npm install'</text>

  <!-- Line 14 - from npm-build.yml -->
  <rect x="280" y="292" width="3" height="14" fill="#2da44e"/>
  <text x="254" y="303" fill="#555" font-size="10" font-family="Consolas, monospace">14</text>
  <text x="322" y="303" fill="#569cd6" font-size="10" font-family="Consolas, monospace">inputs</text>
  <text x="360" y="303" fill="#d4d4d4" font-size="10" font-family="Consolas, monospace">:</text>

  <!-- Line 15 - from npm-build.yml -->
  <rect x="280" y="308" width="3" height="14" fill="#2da44e"/>
  <text x="254" y="319" fill="#555" font-size="10" font-family="Consolas, monospace">15</text>
  <text x="334" y="319" fill="#569cd6" font-size="10" font-family="Consolas, monospace">command</text>
  <text x="386" y="319" fill="#d4d4d4" font-size="10" font-family="Consolas, monospace">: </text>
  <text x="398" y="319" fill="#ce9178" font-size="10" font-family="Consolas, monospace">install</text>

  <!-- Line 16 - conditional (from npm-build.yml, green border + condition badge) -->
  <rect x="280" y="324" width="3" height="14" fill="#2da44e"/>
  <text x="254" y="335" fill="#555" font-size="10" font-family="Consolas, monospace">16</text>
  <text x="310" y="335" fill="#d4d4d4" font-size="10" font-family="Consolas, monospace">- </text>
  <text x="324" y="335" fill="#569cd6" font-size="10" font-family="Consolas, monospace">script</text>
  <text x="360" y="335" fill="#d4d4d4" font-size="10" font-family="Consolas, monospace">: </text>
  <text x="372" y="335" fill="#ce9178" font-size="10" font-family="Consolas, monospace">npm run build</text>
  <!-- Condition badge -->
  <rect x="480" y="325" width="86" height="14" rx="7" fill="#2da44e" opacity="0.15"/>
  <text x="488" y="335" fill="#2da44e" font-size="8" font-weight="600">if → true ✓</text>

  <!-- More lines indicator -->
  <text x="254" y="355" fill="#555" font-size="10" font-family="Consolas, monospace">17</text>
  <rect x="280" y="344" width="3" height="14" fill="#2da44e"/>
  <text x="322" y="355" fill="#569cd6" font-size="10" font-family="Consolas, monospace">displayName</text>
  <text x="400" y="355" fill="#d4d4d4" font-size="10" font-family="Consolas, monospace">: </text>
  <text x="412" y="355" fill="#ce9178" font-size="10" font-family="Consolas, monospace">'npm build'</text>

  <!-- Docker push lines (purple border) -->
  <rect x="280" y="362" width="3" height="14" fill="#8250df"/>
  <text x="254" y="373" fill="#555" font-size="10" font-family="Consolas, monospace">18</text>
  <text x="310" y="373" fill="#d4d4d4" font-size="10" font-family="Consolas, monospace">- </text>
  <text x="324" y="373" fill="#569cd6" font-size="10" font-family="Consolas, monospace">task</text>
  <text x="348" y="373" fill="#d4d4d4" font-size="10" font-family="Consolas, monospace">: </text>
  <text x="360" y="373" fill="#ce9178" font-size="10" font-family="Consolas, monospace">Docker@2</text>

  <rect x="280" y="378" width="3" height="14" fill="#8250df"/>
  <text x="254" y="389" fill="#555" font-size="10" font-family="Consolas, monospace">19</text>
  <text x="322" y="389" fill="#569cd6" font-size="10" font-family="Consolas, monospace">displayName</text>
  <text x="400" y="389" fill="#d4d4d4" font-size="10" font-family="Consolas, monospace">: </text>
  <text x="412" y="389" fill="#ce9178" font-size="10" font-family="Consolas, monospace">'Push to ACR'</text>

  <!-- Test stage (red border) -->
  <rect x="280" y="398" width="3" height="14" fill="#cf222e"/>
  <text x="254" y="409" fill="#555" font-size="10" font-family="Consolas, monospace">20</text>
  <text x="288" y="409" fill="#d4d4d4" font-size="10" font-family="Consolas, monospace">- </text>
  <text x="302" y="409" fill="#569cd6" font-size="10" font-family="Consolas, monospace">stage</text>
  <text x="330" y="409" fill="#d4d4d4" font-size="10" font-family="Consolas, monospace">: </text>
  <text x="342" y="409" fill="#ce9178" font-size="10" font-family="Consolas, monospace">Test</text>

  <rect x="280" y="414" width="3" height="14" fill="#cf222e"/>
  <text x="254" y="425" fill="#555" font-size="10" font-family="Consolas, monospace">21</text>
  <text x="298" y="425" fill="#569cd6" font-size="10" font-family="Consolas, monospace">dependsOn</text>
  <text x="368" y="425" fill="#d4d4d4" font-size="10" font-family="Consolas, monospace">: </text>
  <text x="380" y="425" fill="#ce9178" font-size="10" font-family="Consolas, monospace">Build</text>

  <!-- Deploy stage (amber border) -->
  <rect x="280" y="434" width="3" height="14" fill="#d4a72c"/>
  <text x="254" y="445" fill="#555" font-size="10" font-family="Consolas, monospace">22</text>
  <text x="288" y="445" fill="#d4d4d4" font-size="10" font-family="Consolas, monospace">- </text>
  <text x="302" y="445" fill="#569cd6" font-size="10" font-family="Consolas, monospace">stage</text>
  <text x="330" y="445" fill="#d4d4d4" font-size="10" font-family="Consolas, monospace">: </text>
  <text x="342" y="445" fill="#ce9178" font-size="10" font-family="Consolas, monospace">Deploy</text>

  <!-- Scroll indicator -->
  <rect x="782" y="140" width="4" height="60" rx="2" fill="#555" opacity="0.4"/>

  <!-- Highlight indicator (showing line 12-17 highlighted as from npm-build.yml) -->
  <rect x="283" y="260" width="500" height="108" fill="#2da44e" opacity="0.04" rx="2"/>

  <!-- Footer -->
  <text x="400" y="496" fill="#ccc" font-size="8" text-anchor="middle">Azure Pipelines Visualizer — Pipeline Flattener Mockup · Not final design</text>
</svg>
