<svg xmlns="http://www.w3.org/2000/svg" viewBox="0 0 800 500" font-family="Segoe UI, system-ui, sans-serif">
  <defs>
    <filter id="shadow" x="-4%" y="-4%" width="108%" height="108%">
      <feDropShadow dx="1" dy="2" stdDeviation="3" flood-opacity="0.15"/>
    </filter>
    <marker id="arrow" viewBox="0 0 10 7" refX="10" refY="3.5" markerWidth="8" markerHeight="6" orient="auto-start-reverse">
      <path d="M 0 0 L 10 3.5 L 0 7 z" fill="#6366f1"/>
    </marker>
    <marker id="arrow-red" viewBox="0 0 10 7" refX="10" refY="3.5" markerWidth="8" markerHeight="6" orient="auto-start-reverse">
      <path d="M 0 0 L 10 3.5 L 0 7 z" fill="#ef4444"/>
    </marker>
    <linearGradient id="bg" x1="0" y1="0" x2="0" y2="1">
      <stop offset="0%" stop-color="#f8fafc"/>
      <stop offset="100%" stop-color="#f1f5f9"/>
    </linearGradient>
  </defs>

  <!-- Background -->
  <rect width="800" height="500" fill="url(#bg)" rx="8"/>

  <!-- Title bar -->
  <rect width="800" height="44" fill="#1e293b" rx="8" ry="8"/>
  <rect y="20" width="800" height="24" fill="#1e293b"/>
  <text x="20" y="28" fill="#f8fafc" font-size="14" font-weight="600">Resource &amp; Artifact Lineage Graph</text>
  <text x="780" y="28" fill="#94a3b8" font-size="11" text-anchor="end">Branch: main ▾</text>

  <!-- Column headers -->
  <text x="90" y="72" fill="#64748b" font-size="10" text-anchor="middle" font-weight="600">SOURCE</text>
  <text x="300" y="72" fill="#64748b" font-size="10" text-anchor="middle" font-weight="600">BUILD</text>
  <text x="510" y="72" fill="#64748b" font-size="10" text-anchor="middle" font-weight="600">PACKAGE</text>

  <!-- ==================== COLUMN 1: Source Pipelines ==================== -->

  <!-- Node: Shared-Lib-Build -->
  <g filter="url(#shadow)">
    <rect x="20" y="88" width="140" height="62" rx="8" fill="white" stroke="#22c55e" stroke-width="2"/>
    <circle cx="38" cy="106" r="5" fill="#22c55e"/>
    <text x="48" y="110" fill="#1e293b" font-size="11" font-weight="600">Shared-Lib-Build</text>
    <text x="38" y="126" fill="#64748b" font-size="9">✓ Succeeded · 2h ago</text>
    <text x="38" y="140" fill="#94a3b8" font-size="8">main @ a3f8c1d</text>
  </g>

  <!-- Node: API-Build -->
  <g filter="url(#shadow)">
    <rect x="20" y="178" width="140" height="62" rx="8" fill="white" stroke="#22c55e" stroke-width="2"/>
    <circle cx="38" cy="196" r="5" fill="#22c55e"/>
    <text x="48" y="200" fill="#1e293b" font-size="11" font-weight="600">API-Build</text>
    <text x="38" y="216" fill="#64748b" font-size="9">✓ Succeeded · 45m ago</text>
    <text x="38" y="230" fill="#94a3b8" font-size="8">main @ e7b2f09</text>
  </g>

  <!-- Node: Web-Build (failed) -->
  <g filter="url(#shadow)">
    <rect x="20" y="268" width="140" height="62" rx="8" fill="white" stroke="#ef4444" stroke-width="2"/>
    <circle cx="38" cy="286" r="5" fill="#ef4444"/>
    <text x="48" y="290" fill="#1e293b" font-size="11" font-weight="600">Web-Build</text>
    <text x="38" y="306" fill="#ef4444" font-size="9">✗ Failed · 20m ago</text>
    <text x="38" y="320" fill="#94a3b8" font-size="8">main @ c4d9a12</text>
  </g>

  <!-- ==================== COLUMN 2: Integration ==================== -->

  <!-- Node: Integration-Tests -->
  <g filter="url(#shadow)">
    <rect x="230" y="128" width="140" height="62" rx="8" fill="white" stroke="#22c55e" stroke-width="2"/>
    <circle cx="248" cy="146" r="5" fill="#22c55e"/>
    <text x="258" y="150" fill="#1e293b" font-size="11" font-weight="600">Integration-Tests</text>
    <text x="248" y="166" fill="#64748b" font-size="9">✓ Succeeded · 30m ago</text>
    <text x="248" y="180" fill="#94a3b8" font-size="8">main @ e7b2f09</text>
  </g>

  <!-- Node: Package-API -->
  <g filter="url(#shadow)">
    <rect x="230" y="228" width="140" height="62" rx="8" fill="white" stroke="#3b82f6" stroke-width="2"/>
    <circle cx="248" cy="246" r="5" fill="#3b82f6"/>
    <text x="258" y="250" fill="#1e293b" font-size="11" font-weight="600">Package-API</text>
    <text x="248" y="266" fill="#3b82f6" font-size="9">● Running · started 5m ago</text>
    <text x="248" y="280" fill="#94a3b8" font-size="8">main @ e7b2f09</text>
  </g>

  <!-- ==================== COLUMN 3: Deploy ==================== -->

  <!-- Node: Deploy-Staging (selected) -->
  <g filter="url(#shadow)">
    <rect x="440" y="148" width="140" height="62" rx="8" fill="white" stroke="#6366f1" stroke-width="3"/>
    <rect x="440" y="148" width="140" height="62" rx="8" fill="#eef2ff" fill-opacity="0.5" stroke="#6366f1" stroke-width="3"/>
    <circle cx="458" cy="166" r="5" fill="#22c55e"/>
    <text x="468" y="170" fill="#1e293b" font-size="11" font-weight="600">Deploy-Staging</text>
    <text x="458" y="186" fill="#64748b" font-size="9">✓ Succeeded · 15m ago</text>
    <text x="458" y="200" fill="#94a3b8" font-size="8">main @ e7b2f09</text>
  </g>

  <!-- ==================== EDGES ==================== -->

  <!-- Shared-Lib → Integration-Tests -->
  <path d="M 160 119 C 195 119, 195 155, 230 155" fill="none" stroke="#6366f1" stroke-width="2" marker-end="url(#arrow)"/>
  <rect x="176" y="128" width="38" height="14" rx="7" fill="#eef2ff" stroke="#6366f1" stroke-width="1"/>
  <text x="195" y="138" fill="#6366f1" font-size="7" text-anchor="middle" font-weight="600">lib.zip</text>

  <!-- API-Build → Integration-Tests -->
  <path d="M 160 199 C 195 199, 195 165, 230 165" fill="none" stroke="#6366f1" stroke-width="2" marker-end="url(#arrow)"/>
  <rect x="176" y="174" width="42" height="14" rx="7" fill="#eef2ff" stroke="#6366f1" stroke-width="1"/>
  <text x="197" y="184" fill="#6366f1" font-size="7" text-anchor="middle" font-weight="600">api-bin</text>

  <!-- API-Build → Package-API -->
  <path d="M 160 219 C 195 219, 195 255, 230 255" fill="none" stroke="#6366f1" stroke-width="2" marker-end="url(#arrow)"/>
  <rect x="176" y="229" width="42" height="14" rx="7" fill="#eef2ff" stroke="#6366f1" stroke-width="1"/>
  <text x="197" y="239" fill="#6366f1" font-size="7" text-anchor="middle" font-weight="600">api-bin</text>

  <!-- Web-Build → Deploy-Staging (red, failed upstream) -->
  <path d="M 160 289 C 290 289, 350 200, 440 185" fill="none" stroke="#ef4444" stroke-width="2" stroke-dasharray="6,3" marker-end="url(#arrow-red)"/>
  <rect x="290" y="240" width="48" height="14" rx="7" fill="#fef2f2" stroke="#ef4444" stroke-width="1"/>
  <text x="314" y="250" fill="#ef4444" font-size="7" text-anchor="middle" font-weight="600">web-dist</text>

  <!-- Integration-Tests → Deploy-Staging -->
  <path d="M 370 165 C 405 165, 405 175, 440 175" fill="none" stroke="#6366f1" stroke-width="2" marker-end="url(#arrow)"/>
  <rect x="386" y="160" width="48" height="14" rx="7" fill="#eef2ff" stroke="#6366f1" stroke-width="1"/>
  <text x="410" y="170" fill="#6366f1" font-size="7" text-anchor="middle" font-weight="600">test-rpt</text>

  <!-- Package-API → Deploy-Staging -->
  <path d="M 370 255 C 405 255, 405 195, 440 190" fill="none" stroke="#6366f1" stroke-width="2" marker-end="url(#arrow)"/>
  <rect x="386" y="218" width="48" height="14" rx="7" fill="#eef2ff" stroke="#6366f1" stroke-width="1"/>
  <text x="410" y="228" fill="#6366f1" font-size="7" text-anchor="middle" font-weight="600">api-pkg</text>

  <!-- Trigger icon on Shared-Lib → Integration edge -->
  <text x="185" y="125" fill="#eab308" font-size="9">⚡</text>

  <!-- ==================== DETAIL PANEL (right side) ==================== -->

  <rect x="600" y="50" width="190" height="400" rx="8" fill="white" stroke="#e2e8f0" stroke-width="1" filter="url(#shadow)"/>

  <!-- Panel header -->
  <rect x="600" y="50" width="190" height="36" rx="8" fill="#f8fafc"/>
  <rect x="600" y="70" width="190" height="16" fill="#f8fafc"/>
  <text x="616" y="73" fill="#1e293b" font-size="12" font-weight="700">Deploy-Staging</text>
  <circle cx="776" cy="68" r="8" fill="#f1f5f9" stroke="#cbd5e1" stroke-width="1"/>
  <text x="776" y="72" fill="#94a3b8" font-size="10" text-anchor="middle">✕</text>

  <!-- Pipeline info -->
  <text x="616" y="104" fill="#64748b" font-size="9" font-weight="600">PIPELINE INFO</text>
  <text x="616" y="118" fill="#1e293b" font-size="10">Project: MyProject</text>
  <text x="616" y="132" fill="#1e293b" font-size="10">Repo: azure-deploy</text>
  <text x="616" y="146" fill="#1e293b" font-size="10">Branch: main</text>

  <!-- Latest build -->
  <line x1="612" y1="158" x2="784" y2="158" stroke="#e2e8f0" stroke-width="1"/>
  <text x="616" y="175" fill="#64748b" font-size="9" font-weight="600">LATEST BUILD</text>
  <circle cx="622" cy="190" r="4" fill="#22c55e"/>
  <text x="632" y="194" fill="#1e293b" font-size="10">Build #847 — Succeeded</text>
  <text x="616" y="208" fill="#64748b" font-size="9">Duration: 12m 34s</text>
  <text x="616" y="222" fill="#64748b" font-size="9">Triggered by: Package-API #203</text>

  <!-- Artifacts section -->
  <line x1="612" y1="234" x2="784" y2="234" stroke="#e2e8f0" stroke-width="1"/>
  <text x="616" y="251" fill="#64748b" font-size="9" font-weight="600">CONSUMED ARTIFACTS</text>

  <!-- Artifact 1 -->
  <rect x="616" y="260" width="164" height="30" rx="4" fill="#f8fafc" stroke="#e2e8f0" stroke-width="1"/>
  <text x="626" y="275" fill="#6366f1" font-size="9" font-weight="600">📦 api-pkg</text>
  <text x="626" y="286" fill="#94a3b8" font-size="8">PipelineArtifact · 24.3 MB</text>

  <!-- Artifact 2 -->
  <rect x="616" y="296" width="164" height="30" rx="4" fill="#f8fafc" stroke="#e2e8f0" stroke-width="1"/>
  <text x="626" y="311" fill="#6366f1" font-size="9" font-weight="600">📦 test-rpt</text>
  <text x="626" y="322" fill="#94a3b8" font-size="8">PipelineArtifact · 1.2 MB</text>

  <!-- Artifact 3 -->
  <rect x="616" y="332" width="164" height="30" rx="4" fill="#fef2f2" stroke="#fecaca" stroke-width="1"/>
  <text x="626" y="347" fill="#ef4444" font-size="9" font-weight="600">📦 web-dist</text>
  <text x="626" y="358" fill="#ef4444" font-size="8">⚠ Upstream failed</text>

  <!-- Upstream section -->
  <line x1="612" y1="374" x2="784" y2="374" stroke="#e2e8f0" stroke-width="1"/>
  <text x="616" y="391" fill="#64748b" font-size="9" font-weight="600">UPSTREAM (3)</text>
  <text x="616" y="406" fill="#1e293b" font-size="9">● Integration-Tests</text>
  <text x="616" y="420" fill="#1e293b" font-size="9">● Package-API</text>
  <text x="616" y="434" fill="#ef4444" font-size="9">● Web-Build (failed)</text>

  <!-- ==================== LEGEND ==================== -->
  <rect x="20" y="360" width="200" height="90" rx="6" fill="white" stroke="#e2e8f0" stroke-width="1" fill-opacity="0.95"/>
  <text x="32" y="378" fill="#64748b" font-size="9" font-weight="600">LEGEND</text>
  <circle cx="38" cy="394" r="4" fill="#22c55e"/><text x="48" y="398" fill="#1e293b" font-size="9">Succeeded</text>
  <circle cx="110" cy="394" r="4" fill="#ef4444"/><text x="120" y="398" fill="#1e293b" font-size="9">Failed</text>
  <circle cx="170" cy="394" r="4" fill="#3b82f6"/><text x="180" y="398" fill="#1e293b" font-size="9">Running</text>
  <line x1="32" y1="414" x2="52" y2="414" stroke="#6366f1" stroke-width="2"/><text x="58" y="418" fill="#1e293b" font-size="9">Artifact flow</text>
  <line x1="32" y1="432" x2="52" y2="432" stroke="#ef4444" stroke-width="2" stroke-dasharray="6,3"/><text x="58" y="436" fill="#1e293b" font-size="9">Failed upstream</text>
  <text x="140" y="418" fill="#eab308" font-size="9">⚡</text><text x="152" y="418" fill="#1e293b" font-size="9">Auto-trigger</text>
</svg>
